<?xml version="1.0" encoding="UTF-8" standalone="no"?>
<!DOCTYPE svg PUBLIC "-//W3C//DTD SVG 1.1//EN" "http://www.w3.org/Graphics/SVG/1.1/DTD/svg11.dtd">
<svg width="100%" height="100%" viewBox="0 0 64 64" version="1.1" xmlns="http://www.w3.org/2000/svg" xmlns:xlink="http://www.w3.org/1999/xlink" xml:space="preserve" xmlns:serif="http://www.serif.com/" style="fill-rule:evenodd;clip-rule:evenodd;stroke-linejoin:round;stroke-miterlimit:2;">
    <g transform="matrix(0.507377,0,0,0.538149,6.63114,5.09255)">
        <path d="M6.25,81.25L6.25,25C6.25,19.824 10.449,15.625 15.625,15.625L21.875,15.625L21.875,12.5C21.875,10.773 23.277,9.375 25,9.375C26.727,9.375 28.125,10.773 28.125,12.5L28.125,15.625L71.875,15.625L71.875,12.5C71.875,10.773 73.273,9.375 75,9.375C76.723,9.375 78.125,10.773 78.125,12.5L78.125,15.625L84.375,15.625C89.551,15.625 93.75,19.824 93.75,25L93.75,81.25C93.75,83.734 92.762,86.121 91.004,87.879C89.246,89.637 86.863,90.625 84.375,90.625L15.625,90.625C10.449,90.625 6.25,86.426 6.25,81.25ZM21.875,21.875L15.625,21.875C13.902,21.875 12.5,23.273 12.5,25L12.5,37.5L87.5,37.5L87.5,25C87.5,23.273 86.098,21.875 84.375,21.875L78.125,21.875L78.125,25C78.125,26.727 76.723,28.125 75,28.125C73.273,28.125 71.875,26.727 71.875,25L71.875,21.875L28.125,21.875L28.125,25C28.125,26.727 26.727,28.125 25,28.125C23.277,28.125 21.875,26.727 21.875,25L21.875,21.875ZM12.5,43.75L12.5,81.25C12.5,82.977 13.902,84.375 15.625,84.375L84.375,84.375C85.207,84.375 85.996,84.047 86.582,83.461C87.172,82.875 87.5,82.078 87.5,81.25L87.5,43.75L12.5,43.75Z"/>
    </g>
</svg>
