<svg width="100%" height="100%" viewBox="0 0 24 24" version="1.1" xmlns="http://www.w3.org/2000/svg" xmlns:xlink="http://www.w3.org/1999/xlink" xml:space="preserve" xmlns:serif="http://www.serif.com/" style="fill-rule:evenodd;clip-rule:evenodd;stroke-linejoin:round;stroke-miterlimit:2;">
    <g transform="matrix(1,0,0,1,-30,-96)">
        <g id="Internal-News" serif:id="Internal News" transform="matrix(0.24,0,0,0.24,29.52,96.24)">
            <rect x="2" y="-1" width="100" height="100" style="fill:none;"/>
            <clipPath id="_clip1">
                <rect x="2" y="-1" width="100" height="100"/>
            </clipPath>
            <g clip-path="url(#_clip1)">
                <g transform="matrix(50,0,0,50,2,-1)">
                    <rect x="0" y="0" width="2" height="2" style="fill:rgb(249,65,68);"/>
                </g>
                <g transform="matrix(0.694504,0,0,0.694504,17.274415,14.275522)">
                    <path d="M92.363,28.339C98.215,34.198 98.215,43.691 92.368,49.55L48.309,93.609C42.446,99.457 32.957,99.457 27.094,93.609L5.879,72.394C2.371,68.878 2.371,63.183 5.879,59.667L62.668,2.882C63.84,1.71 65.738,1.71 66.91,2.882L92.363,28.339ZM88.121,45.307C91.633,41.791 91.632,36.096 88.125,32.581L64.789,9.245L24.973,49.061L48.309,72.397C50.605,74.69 52.094,77.67 52.543,80.885L88.121,45.307ZM20.73,53.304L16.124,57.909C17.046,58.351 17.886,58.945 18.609,59.667L37.699,78.761L41.945,74.519L20.73,53.304ZM44.062,89.366C46.757,86.667 47.46,82.565 45.819,79.124L39.819,85.124C38.648,86.296 36.749,86.296 35.577,85.124L14.362,63.909C13.202,62.788 11.358,62.788 10.194,63.909C9.003,65.061 8.968,66.96 10.12,68.151L31.335,89.366C34.851,92.878 40.546,92.878 44.062,89.366Z"/>
                </g>
                <g transform="matrix(0.694504,0,0,0.694504,17.274415,14.275522)">
                    <path d="M35.578,46.941L62.668,19.851C63.84,18.679 65.738,18.679 66.91,19.851L75.395,28.335C76.566,29.507 76.566,31.406 75.395,32.578L48.305,59.672C47.133,60.843 45.234,60.843 44.062,59.672L35.578,51.187C34.406,50.011 34.406,48.113 35.578,46.941Z"/>
                </g>
                <g transform="matrix(0.694504,0,0,0.694504,17.274415,14.275522)">
                    <path d="M79.637,36.824C80.809,35.652 82.707,35.652 83.879,36.824C85.051,37.996 85.051,39.894 83.879,41.066L56.793,68.152C55.625,69.301 53.754,69.301 52.586,68.152C51.406,66.992 51.391,65.09 52.551,63.91L79.637,36.824Z" style="fill-opacity:0.4;"/>
                </g>
                <g transform="matrix(4.166667,0,0,4.166667,-123,-401)">
                    <path d="M41,115L38,115L35,111L35,110L36,110L40,114L41,112L42,114L41,115Z" style="fill-opacity:0.4;"/>
                </g>
            </g>
        </g>
        <g id="Colors">
        </g>
    </g>
</svg>
