<?xml version="1.0" encoding="UTF-8" standalone="no"?>
<!DOCTYPE svg PUBLIC "-//W3C//DTD SVG 1.1//EN" "http://www.w3.org/Graphics/SVG/1.1/DTD/svg11.dtd">
<svg width="169" height="169" viewBox="0 0 64 64" version="1.1" xmlns="http://www.w3.org/2000/svg" xmlns:xlink="http://www.w3.org/1999/xlink" xml:space="preserve" xmlns:serif="http://www.serif.com/" style="fill-rule:evenodd;clip-rule:evenodd;stroke-linejoin:round;stroke-miterlimit:2;">
    <g transform="matrix(6.40413,0,0,5.76354,-33.0822,-24.683)">
        <rect x="5.166" y="4.283" width="9.994" height="11.104" style="fill:rgb(92,107,192);"/>
    </g>
    <path d="M39.5,14L39.5,43C39.5,44.151 38.257,44.873 37.257,44.303C31.96,41.282 26.887,38.991 22.039,37.428L21.312,37.2C21.298,38.311 21.33,39.418 21.408,40.523C21.471,41.437 21.551,42.133 21.669,42.847C21.768,43.44 21.86,43.894 22.145,45.23C22.671,47.687 20.8,49.963 18.141,50.414C17.96,50.445 17.777,50.466 17.593,50.479C14.922,50.666 12.527,48.938 12.354,46.463C12.341,46.281 12.341,46.097 12.354,45.914C12.451,44.553 12.479,44.09 12.494,43.489C12.512,42.765 12.493,42.064 12.429,41.151C12.299,39.281 12.038,37.42 11.648,35.568C11.609,35.381 11.606,35.195 11.635,35.018C10.073,34.79 8.491,34.616 6.888,34.496C6.105,34.437 5.5,33.785 5.5,33L5.5,24C5.5,23.203 6.124,22.545 6.92,22.502C11.737,22.246 16.776,21.27 22.039,19.572C27.316,17.87 32.381,15.583 37.236,12.709C38.236,12.117 39.5,12.838 39.5,14ZM14.698,35.522L14.754,35.801C15.079,37.507 15.302,39.221 15.422,40.941C15.492,41.946 15.513,42.741 15.493,43.563C15.477,44.228 15.447,44.717 15.346,46.127C15.343,46.17 15.343,46.212 15.346,46.254C15.395,46.943 16.257,47.565 17.384,47.487C17.469,47.481 17.555,47.47 17.639,47.456C18.726,47.272 19.351,46.511 19.212,45.857C18.916,44.474 18.818,43.994 18.71,43.338C18.575,42.527 18.485,41.737 18.415,40.732C18.313,39.279 18.285,37.82 18.329,36.357C17.134,36.05 15.925,35.778 14.703,35.54L14.698,35.522ZM45.969,35.855L46.081,35.96L51.626,41.727C52.2,42.324 52.182,43.274 51.584,43.848C51.025,44.386 50.155,44.404 49.575,43.912L49.464,43.806L43.919,38.04C43.345,37.442 43.363,36.493 43.96,35.919C44.52,35.38 45.39,35.363 45.969,35.855ZM36.5,16.582C32.148,18.971 27.634,20.92 22.961,22.428C19.909,23.412 16.923,24.165 14,24.687L14.001,32.359C17.06,32.895 20.047,33.632 22.961,34.572C27.319,35.978 31.832,37.939 36.5,40.453L36.5,16.582ZM11.001,25.145C10.162,25.251 9.328,25.337 8.5,25.403L8.5,31.622C9.339,31.701 10.173,31.794 11.001,31.902L11.001,25.145ZM56,26.5C56.828,26.5 57.5,27.172 57.5,28C57.5,28.828 56.828,29.5 56,29.5L48,29.5C47.172,29.5 46.5,28.828 46.5,28C46.5,27.172 47.172,26.5 48,26.5L56,26.5ZM51.584,12.919C52.182,13.493 52.2,14.442 51.626,15.04L46.081,20.806C45.507,21.404 44.558,21.422 43.96,20.848C43.363,20.274 43.345,19.324 43.919,18.727L49.464,12.96C50.038,12.363 50.987,12.345 51.584,12.919Z" style="fill:white;fill-rule:nonzero;"/>
</svg>
